<svg xmlns="http://www.w3.org/2000/svg" width="1200" height="630" viewBox="0 0 1200 630">
  <defs>
    <linearGradient id="bg" x1="0%" y1="0%" x2="100%" y2="100%">
      <stop offset="0%" style="stop-color:#0c0a09"/>
      <stop offset="100%" style="stop-color:#1c1917"/>
    </linearGradient>
    <linearGradient id="accent" x1="0%" y1="0%" x2="100%" y2="0%">
      <stop offset="0%" style="stop-color:#e88b1a"/>
      <stop offset="100%" style="stop-color:#f4c574"/>
    </linearGradient>
  </defs>
  <rect width="1200" height="630" fill="url(#bg)"/>
  <rect x="80" y="200" width="1040" height="180" rx="16" fill="#292524" stroke="#44403c" stroke-width="2"/>
  <g fill="#fafaf9">
    <rect x="100" y="220" width="60" height="140" rx="4"/>
    <rect x="170" y="220" width="60" height="140" rx="4"/>
    <rect x="240" y="220" width="60" height="140" rx="4"/>
    <rect x="310" y="220" width="60" height="140" rx="4"/>
    <rect x="380" y="220" width="60" height="140" rx="4"/>
    <rect x="450" y="220" width="60" height="140" rx="4"/>
    <rect x="520" y="220" width="60" height="140" rx="4"/>
    <rect x="590" y="220" width="60" height="140" rx="4"/>
    <rect x="660" y="220" width="60" height="140" rx="4"/>
    <rect x="730" y="220" width="60" height="140" rx="4"/>
    <rect x="800" y="220" width="60" height="140" rx="4"/>
    <rect x="870" y="220" width="60" height="140" rx="4"/>
    <rect x="940" y="220" width="60" height="140" rx="4"/>
    <rect x="1010" y="220" width="60" height="140" rx="4"/>
  </g>
  <g fill="#1c1917">
    <rect x="155" y="220" width="38" height="85" rx="3"/>
    <rect x="225" y="220" width="38" height="85" rx="3"/>
    <rect x="365" y="220" width="38" height="85" rx="3"/>
    <rect x="435" y="220" width="38" height="85" rx="3"/>
    <rect x="575" y="220" width="38" height="85" rx="3"/>
    <rect x="645" y="220" width="38" height="85" rx="3"/>
    <rect x="715" y="220" width="38" height="85" rx="3"/>
    <rect x="855" y="220" width="38" height="85" rx="3"/>
    <rect x="995" y="220" width="38" height="85" rx="3"/>
  </g>
  <text x="600" y="130" text-anchor="middle" font-family="Georgia, serif" font-size="72" font-weight="bold" fill="url(#accent)">Web Harmonium</text>
  <text x="600" y="190" text-anchor="middle" font-family="system-ui, sans-serif" font-size="32" fill="#a8a29e">Play Harmonium Online Free — Harmonium Web</text>
  <text x="600" y="480" text-anchor="middle" font-family="system-ui, sans-serif" font-size="24" fill="#78716c">Real Indian Harmonium Sound · Keyboard &amp; MIDI · Free</text>
</svg>
